<?xml version="1.0" standalone="no"?>
<!DOCTYPE svg PUBLIC "-//W3C//DTD SVG 20010904//EN"
 "http://www.w3.org/TR/2001/REC-SVG-20010904/DTD/svg10.dtd">
<svg version="1.0" xmlns="http://www.w3.org/2000/svg"
 width="499.000000pt" height="499.000000pt" viewBox="0 0 499.000000 499.000000"
 preserveAspectRatio="xMidYMid meet">
<metadata>
Created by potrace 1.14, written by Peter Selinger 2001-2017
</metadata>
<g transform="translate(0.000000,499.000000) scale(0.100000,-0.100000)"
fill="#000000" stroke="none">
<path d="M2273 4305 c-60 -18 -100 -42 -122 -74 -20 -27 -24 -29 -52 -19 -44
15 -112 3 -185 -33 -87 -43 -134 -86 -169 -155 -17 -33 -33 -61 -36 -64 -4 -3
-19 -43 -34 -90 -25 -78 -26 -93 -21 -190 11 -171 52 -320 139 -499 29 -61 49
-110 43 -108 -6 2 -21 23 -34 47 -33 66 -99 129 -152 144 -84 25 -153 2 -255
-84 -33 -28 -64 -49 -70 -47 -5 2 -23 34 -38 72 -30 76 -48 100 -89 121 -71
37 -172 -9 -257 -116 -32 -39 -40 -45 -69 -42 -19 2 -41 -3 -50 -10 -24 -20
-72 -39 -72 -29 0 12 -42 29 -62 25 -10 -2 -24 -5 -32 -7 -8 -2 -21 -9 -29
-16 -13 -10 -21 -9 -47 4 -18 9 -49 23 -69 30 -20 7 -85 34 -144 59 -117 49
-130 49 -177 4 -78 -75 -136 -161 -164 -243 -21 -59 -24 -84 -23 -194 l2 -125
40 -12 c22 -6 67 -25 100 -41 33 -17 78 -36 100 -42 22 -7 64 -24 93 -37 l54
-25 -7 -38 c-12 -70 2 -109 56 -151 27 -21 53 -40 58 -42 6 -1 11 -42 12 -90
1 -49 6 -88 10 -88 5 0 9 -6 9 -14 0 -19 60 -71 112 -97 30 -15 60 -22 103
-21 l60 0 1 -66 c0 -37 4 -83 7 -104 9 -44 66 -110 125 -145 46 -27 60 -31
125 -32 21 -1 36 -4 33 -9 -8 -13 -17 -132 -17 -212 0 -88 16 -231 30 -279 6
-19 8 -37 6 -42 -6 -8 34 -121 45 -129 4 -3 20 -24 37 -47 42 -58 123 -126
202 -166 137 -72 266 -92 545 -85 219 6 400 31 596 83 79 21 213 105 277 172
49 51 220 329 229 373 3 14 10 42 15 62 l10 37 32 -19 c18 -11 38 -20 44 -20
7 0 42 -14 78 -30 36 -17 70 -30 76 -30 6 0 79 -33 162 -74 243 -119 376 -182
473 -224 l91 -39 321 0 c227 0 319 4 315 11 -4 6 0 5 9 -2 12 -9 54 -12 159
-10 123 3 144 5 147 19 2 11 -13 26 -40 42 -24 14 -78 52 -120 86 -43 34 -81
61 -85 61 -3 0 -38 24 -77 53 -39 30 -115 84 -168 121 -53 36 -98 70 -100 75
-6 15 -105 81 -111 74 -4 -3 -7 -2 -7 4 0 6 -22 22 -49 36 -26 14 -72 39 -102
55 -30 16 -88 43 -129 60 -41 17 -94 40 -117 51 -23 12 -46 21 -52 21 -5 0
-47 18 -93 39 -46 22 -123 56 -173 77 -49 20 -117 49 -150 65 -33 15 -82 36
-110 47 l-50 20 -7 108 c-11 180 -43 312 -102 414 -26 44 -46 84 -46 90 0 6
-4 16 -10 23 -101 124 -156 186 -183 204 -83 58 -87 61 -271 254 -62 64 -86
99 -100 147 -7 19 -2 25 36 42 68 31 107 23 178 -37 79 -67 160 -240 160 -342
0 -17 4 -31 8 -31 13 0 52 102 52 134 0 23 3 26 14 17 8 -6 19 -25 26 -42 17
-40 33 -24 33 34 0 89 -92 225 -178 263 -16 7 -27 14 -22 15 4 1 10 2 15 4 4
1 21 5 37 10 53 13 149 72 184 112 67 76 76 104 76 243 0 120 -1 127 -29 175
-16 28 -46 70 -66 95 -36 43 -37 49 -42 135 -5 86 -12 110 -51 169 -24 38 -73
76 -109 86 -78 22 -183 -17 -222 -82 l-24 -41 -16 31 c-52 100 -200 160 -313
127z m758 -432 c13 -16 12 -17 -3 -4 -17 13 -22 21 -14 21 2 0 10 -8 17 -17z
m-850 -120 c13 -16 12 -17 -3 -4 -10 7 -18 15 -18 17 0 8 8 3 21 -13z m574 -3
c3 -6 -1 -7 -9 -4 -18 7 -21 14 -7 14 6 0 13 -4 16 -10z m-354 -293 c-10 -9
-11 -8 -5 6 3 10 9 15 12 12 3 -3 0 -11 -7 -18z m-411 -21 c0 -3 -4 -8 -10
-11 -5 -3 -10 -1 -10 4 0 6 5 11 10 11 6 0 10 -2 10 -4z m575 -134 c-3 -3 -11
0 -18 7 -9 10 -8 11 6 5 10 -3 15 -9 12 -12z m238 -39 c-7 -2 -19 -2 -25 0 -7
3 -2 5 12 5 14 0 19 -2 13 -5z m-1293 -38 c-7 -8 -20 -15 -29 -15 -13 1 -13 3
3 15 26 19 42 19 26 0z m-76 -46 c-10 -12 -32 -30 -49 -41 -19 -12 -13 -4 15
21 49 44 64 53 34 20z m-547 -35 c-3 -3 -12 -4 -19 -1 -8 3 -5 6 6 6 11 1 17
-2 13 -5z m453 -54 c-6 -11 -13 -20 -16 -20 -2 0 0 9 6 20 6 11 13 20 16 20 2
0 0 -9 -6 -20z m-462 -10 c-7 -10 -14 -17 -17 -15 -4 4 18 35 25 35 2 0 -1 -9
-8 -20z m961 -133 c1 -5 -3 -5 -9 -2 -5 3 -10 16 -9 28 0 21 1 21 9 2 5 -11 9
-24 9 -28z m-2 -84 c-3 -10 -5 -2 -5 17 0 19 2 27 5 18 2 -10 2 -26 0 -35z
m30 -30 c-3 -10 -5 -4 -5 12 0 17 2 24 5 18 2 -7 2 -21 0 -30z m13 -68 c0 -5
-5 -3 -10 5 -5 8 -10 20 -10 25 0 6 5 3 10 -5 5 -8 10 -19 10 -25z m-501 -897
l-22 -23 19 33 c10 18 20 28 22 23 2 -6 -7 -21 -19 -33z m-119 -138 c-24 -15
-37 -11 -16 5 11 8 22 12 25 9 3 -3 -1 -9 -9 -14z m20 -14 c0 -3 -4 -8 -10
-11 -5 -3 -10 -1 -10 4 0 6 5 11 10 11 6 0 10 -2 10 -4z m1200 -76 c8 -5 11
-10 5 -10 -5 0 -17 5 -25 10 -8 5 -10 10 -5 10 6 0 17 -5 25 -10z m-777 -67
c-7 -2 -19 -2 -25 0 -7 3 -2 5 12 5 14 0 19 -2 13 -5z m985 -26 c7 -6 11 -12
9 -14 -5 -4 -77 36 -77 43 0 5 52 -17 68 -29z m238 -103 c18 -14 18 -14 -6 -3
-31 14 -36 19 -24 19 6 0 19 -7 30 -16z m1359 6 c3 -6 -1 -7 -9 -4 -18 7 -21
14 -7 14 6 0 13 -4 16 -10z m-1305 -30 c8 -5 11 -10 5 -10 -5 0 -17 5 -25 10
-8 5 -10 10 -5 10 6 0 17 -5 25 -10z"/>
</g>
</svg>
